<svg fill="#33c07f"  height="496pt" viewBox="-2 0 496 496.03363" width="496pt" xmlns="http://www.w3.org/2000/svg"><path d="m166.160156 297.761719v78.238281c0 22.054688 17.945313 40 40 40h80c22.058594 0 40-17.945312 40-40v-78.238281c4.871094-4.394531 8-10.699219 8-17.761719v-24h-176v24c0 7.0625 3.128906 13.359375 8 17.761719zm144 78.238281c0 13.230469-10.765625 24-24 24h-80c-13.230468 0-24-10.769531-24-24v-72c6.167969 0 11.746094-2.40625 16-6.238281 4.257813 3.839843 9.832032 6.238281 16 6.238281 6.167969 0 11.746094-2.40625 16-6.238281 4.257813 3.839843 9.832032 6.238281 16 6.238281 6.167969 0 11.746094-2.40625 16-6.238281 4.257813 3.839843 9.832032 6.238281 16 6.238281 6.167969 0 11.746094-2.40625 16-6.238281 4.257813 3.839843 9.832032 6.238281 16 6.238281zm-56-96c0 4.414062-3.589844 8-8 8-4.40625 0-8-3.585938-8-8v-8h16zm-32 0c0 4.414062-3.589844 8-8 8-4.40625 0-8-3.585938-8-8v-8h16zm96 0c0 4.414062-3.589844 8-8 8-4.40625 0-8-3.585938-8-8v-8h16zm-32 0c0 4.414062-3.589844 8-8 8-4.40625 0-8-3.585938-8-8v-8h16zm-112-8h16v8c0 4.414062-3.589844 8-8 8-4.40625 0-8-3.585938-8-8zm0 0"/><path d="m261.191406 312c-5.496094 0-10.71875 1.769531-15.03125 5.023438-4.3125-3.253907-9.535156-5.023438-15.03125-5.023438-13.769531 0-24.96875 11.199219-24.96875 24.96875 0 6.574219 2.664063 13.007812 7.3125 17.65625l32.6875 32.6875 32.6875-32.6875c4.648438-4.648438 7.3125-11.082031 7.3125-17.65625 0-13.769531-11.199218-24.96875-24.96875-24.96875zm6.34375 31.3125-21.375 21.375-21.375-21.375c-1.664062-1.671875-2.625-3.984375-2.625-6.34375 0-4.945312 4.023438-8.96875 8.96875-8.96875 2.398438 0 4.648438.929688 6.34375 2.625l8.6875 8.6875 8.6875-8.6875c1.695313-1.695312 3.945313-2.625 6.34375-2.625 4.945313 0 8.96875 4.023438 8.96875 8.96875 0 2.359375-.960937 4.671875-2.625 6.34375zm0 0"/><path d="m465.289062 418.464844c-7.175781-8.625-11.128906-19.535156-11.128906-30.738282v-67.726562c0-33.046875-25.183594-60.320312-57.367187-63.65625-3.214844-9.464844-12.089844-16.34375-22.632813-16.34375h-12.472656c-28.03125-29.167969-43.527344-67.304688-43.527344-107.878906v-60.121094c0-39.703125-32.304687-72-72-72-39.695312 0-72 32.296875-72 72v60.121094c0 40.574218-15.496094 78.710937-43.527344 107.878906h-12.472656c-10.542968 0-19.414062 6.878906-22.632812 16.34375-32.183594 3.335938-57.367188 30.609375-57.367188 63.65625v67.726562c0 11.203126-3.953125 22.121094-11.128906 30.730469l-27.015625 32.421875 12.289063 10.25 27.023437-32.433594c9.5625-11.488281 14.832031-26.03125 14.832031-40.96875v-67.726562c0-24.304688 18.167969-44.390625 41.625-47.527344 3.441406 9.046875 12.136719 15.527344 22.375 15.527344h8v194.703125l1.992188 2.265625c8.671875 9.855469 20.066406 13.429688 30.472656 9.496094 2.847656-1.074219 5.367188-2.710938 7.550781-4.695313 4.25 3.832031 9.824219 6.230469 15.984375 6.230469 6.167969 0 11.746094-2.40625 16-6.238281 4.257813 3.839843 9.832032 6.238281 16 6.238281 6.167969 0 11.746094-2.40625 16-6.238281 4.257813 3.839843 9.832032 6.238281 16 6.238281 6.167969 0 11.746094-2.40625 16-6.238281 4.257813 3.839843 9.832032 6.238281 16 6.238281 6.167969 0 11.746094-2.40625 16-6.238281 4.257813 3.839843 9.832032 6.238281 16 6.238281 5.96875 0 11.367188-2.273438 15.578125-5.886719 5.09375 3.847657 10.71875 5.917969 16.375 5.917969 2.855469 0 5.71875-.511719 8.511719-1.566406 9.289062-3.503906 15.535156-12.535156 15.535156-22.464844v-184h8c10.242188 0 18.9375-6.480469 22.375-15.527344 23.457032 3.136719 41.625 23.222656 41.625 47.527344v67.726562c0 14.9375 5.273438 29.488282 14.832032 40.976563l27.015624 32.425781 12.289063-10.25zm-195.128906-282.464844c0 4.414062-3.589844 8-8 8-4.40625 0-8-3.585938-8-8v-8h16zm-32 0c0 4.414062-3.589844 8-8 8-4.40625 0-8-3.585938-8-8v-8h16zm-32 0c0 4.414062-3.589844 8-8 8-4.40625 0-8-3.585938-8-8v-8h16zm64-88h-48c0-13.230469 10.769532-24 24-24 13.234375 0 24 10.769531 24 24zm-48 16h48v48h-48zm64 64h16v8c0 4.414062-3.589844 8-8 8-4.40625 0-8-3.585938-8-8zm16-56v40h-16v-64c0-7.359375-2.144531-14.183594-5.625-20.113281 13.136719 10.257812 21.625 26.191406 21.625 44.113281zm-112 0c0-17.921875 8.488282-33.855469 21.625-44.113281-3.480468 5.929687-5.625 12.753906-5.625 20.113281v64h-16zm-2.078125 85.703125c3.078125 1.441406 6.472657 2.296875 10.078125 2.296875 6.167969 0 11.746094-2.40625 16-6.238281 4.257813 3.839843 9.832032 6.238281 16 6.238281 6.167969 0 11.746094-2.40625 16-6.238281 4.257813 3.839843 9.832032 6.238281 16 6.238281 6.167969 0 11.746094-2.40625 16-6.238281 4.257813 3.839843 9.832032 6.238281 16 6.238281 3.609375 0 7-.855469 10.082032-2.296875 5.214843 35.097656 20.925781 67.609375 45.917968 93.5625v196.734375h-208v-196.734375c24.992188-25.953125 40.703125-58.464844 45.921875-93.5625zm-69.921875 114.296875c-4.40625 0-8-3.585938-8-8s3.59375-8 8-8h8v16zm34.824219 207.496094c-3.359375 1.246094-7.199219.144531-10.824219-3.070313v-12.425781h16v8c0 3.3125-2.078125 6.320312-5.175781 7.496094zm29.175781.503906c-4.40625 0-8-3.585938-8-8v-8h16v8c0 4.414062-3.589844 8-8 8zm32 0c-4.40625 0-8-3.585938-8-8v-8h16v8c0 4.414062-3.589844 8-8 8zm32 0c-4.40625 0-8-3.585938-8-8v-8h16v8c0 4.414062-3.589844 8-8 8zm32 0c-4.40625 0-8-3.585938-8-8v-8h16v8c0 4.414062-3.589844 8-8 8zm32 0c-4.40625 0-8-3.585938-8-8v-8h16v8c0 4.414062-3.589844 8-8 8zm34.824219-.503906c-3.359375 1.246094-7.199219.144531-10.824219-3.070313v-12.425781h16v8c0 3.3125-2.078125 6.320312-5.175781 7.496094zm29.175781-207.496094h-8v-16h8c4.410156 0 8 3.585938 8 8s-3.589844 8-8 8zm0 0"/></svg>