<svg fill="#33c07f" height="480pt" viewBox="0 -4 480.00575 480" width="480pt" xmlns="http://www.w3.org/2000/svg"><path d="m400.003906 416.089844c0-13.253906-10.742187-24-24-24h-320c-13.253906 0-24 10.746094-24 24 0 13.257812 10.746094 24 24 24h320c13.257813 0 24-10.742188 24-24zm-288 0c0-4.417969 3.582032-8 8-8 4.421875 0 8 3.582031 8 8 0 4.421875-3.578125 8-8 8-4.417968 0-8-3.578125-8-8zm-14.527344 8h-18.941406c1.960938-5.152344 1.960938-10.84375 0-16h18.941406c-1.960937 5.15625-1.960937 10.847656 0 16zm45.058594-16h18.941406c-1.960937 5.15625-1.960937 10.847656 0 16h-18.941406c1.960938-5.152344 1.960938-10.84375 0-16zm33.46875 8c0-4.417969 3.582032-8 8-8 4.421875 0 8 3.582031 8 8 0 4.421875-3.578125 8-8 8-4.417968 0-8-3.578125-8-8zm30.53125-8h18.941406c-1.960937 5.15625-1.960937 10.847656 0 16h-18.941406c1.960938-5.152344 1.960938-10.84375 0-16zm33.46875 8c0-4.417969 3.582032-8 8-8 4.421875 0 8 3.582031 8 8 0 4.421875-3.578125 8-8 8-4.417968 0-8-3.578125-8-8zm30.53125-8h18.941406c-1.960937 5.15625-1.960937 10.847656 0 16h-18.941406c1.960938-5.152344 1.960938-10.84375 0-16zm33.46875 8c0-4.417969 3.582032-8 8-8 4.421875 0 8 3.582031 8 8 0 4.421875-3.578125 8-8 8-4.417968 0-8-3.578125-8-8zm30.53125-8h18.941406c-1.960937 5.15625-1.960937 10.847656 0 16h-18.941406c1.960938-5.152344 1.960938-10.84375 0-16zm49.46875 8c0 4.421875-3.578125 8-8 8-4.417968 0-8-3.578125-8-8 0-4.417969 3.582032-8 8-8 4.421875 0 8 3.582031 8 8zm-336 0c0-4.417969 3.582032-8 8-8 4.421875 0 8 3.582031 8 8 0 4.421875-3.578125 8-8 8-4.417968 0-8-3.578125-8-8zm0 0"/><path d="m477.324219 314.117188c-1.699219-1.535157-3.984375-2.25-6.253907-1.96875l-23.066406 2.710937v-186.105469l16.410156-10.328125c3.738282-2.351562 4.863282-7.289062 2.511719-11.03125l-17.046875-27.085937c-2.355468-3.742188-7.292968-4.867188-11.03125-2.511719l-115.105468 72.4375c-3.734376 2.355469-4.851563 7.289063-2.503907 11.023437l17.039063 27.089844c1.128906 1.796875 2.929687 3.074219 5 3.542969.582031.136719 1.171875.203125 1.769531.199219 1.507813 0 2.984375-.425782 4.261719-1.222656l40.929687-25.757813-20.738281 158.980469-34.398438 4.058594c-4.039062.457031-7.09375 3.875-7.097656 7.941406v24h-48v-4.046875c0-10.636719-7-20-17.199218-23.015625l-8.910157-2.632813 10.015625-65.085937c.253906-1.640625-.011718-3.316406-.753906-4.800782l-31.152344-62.304687v-22.113281h31.058594c11.679688.210937 21.898438-7.804688 24.480469-19.199219 1.425781-7.0625-.390625-14.390625-4.949219-19.972656-4.5625-5.578125-11.382812-8.816407-18.589844-8.828125h-26.230468l-10.3125-30.925782c-1.363282-4.058593-3.75-7.691406-6.933594-10.550781 16.609375-12.269531 23.507812-33.789062 17.132812-53.429687s-24.597656-33.003906-45.246094-33.17968775c-20.652343-.17578125-39.097656 12.87890575-45.804687 32.41015575s-.171875 41.160157 16.226563 53.710938c-1.597657.65625-3.199219 1.207031-4.71875 1.964844l-.289063.144531c-2.328125.070313-4.636719.472656-6.855469 1.191406l-36.253906 12.371094c-16.042969 5.476563-27.003906 20.328125-27.511719 37.269531l-.976562 32.480469c-.261719 5.09375 1.027343 10.148437 3.703125 14.488281 4.273437 6.703125 11.589844 10.855469 19.535156 11.089844h.738281c12.972657.003906 23.605469-10.304688 24-23.273438l.796875-26.230468 17-5.128906v57.085937l-7.292968 58.328125-75 22.503906c-3.390626 1.015625-5.710938 4.140625-5.707032 7.679688v48c0 4.421875 3.582032 8 8 8h12.488282c10.324218-.003906 19.488281-6.613282 22.753906-16.40625l2.917968-8.761719 67.578126-15.015625c2.140624-.476562 3.992187-1.8125 5.121093-3.695312l19.542969-32.574219 5.597656 7.199219v85.253906h-150.046875c-28.609375-.410156-53.140625 20.34375-57.480469 48.625-2.101562 15.996094 2.789063 32.121094 13.421876 44.257812 10.632812 12.132813 25.972656 19.101563 42.105468 19.117188h416c4.421875 0 8-3.578125 8-8v-144c.003906-2.28125-.972656-4.457032-2.679687-5.972656zm-129.765625-141.058594-8.519532-13.542969 101.597657-63.921875 8.527343 13.554688zm60.261718-19.015625 24.183594-15.222657v177.917969l-46.109375 5.433594zm-183.40625-15.421875c1.089844 3.265625 4.148438 5.472656 7.589844 5.46875h32c4.421875 0 8 3.582031 8 8 0 4.421875-3.578125 8-8 8h-50.453125l-19.457031-51.871094c-.882812-2.347656-.746094-4.957031.375-7.199219 1.507812-3.039062 4.609375-4.960937 8-4.960937h1.28125c3.863281-.003906 7.296875 2.46875 8.511719 6.136718zm-32.410156-122.53125c17.675782 0 32 14.328125 32 32 0 17.675781-14.324218 32-32 32-17.671875 0-32-14.324219-32-32 0-17.671875 14.328125-32 32-32zm-67.199218 117.875c-3.292969.992187-5.585938 3.980468-5.6875 7.421875l-.96875 32c-.164063 4.398437-3.828126 7.851562-8.230469 7.753906-4.414063-.132813-7.886719-3.8125-7.761719-8.226563l1-33.34375c.3125-10.28125 6.96875-19.292968 16.707031-22.613281l32.140625-10.976562v19.824219zm46.089843 155.0625-68.648437 15.25c-2.746094.609375-4.96875 2.617187-5.855469 5.285156l-4.351563 13.058594c-1.089843 3.265625-4.144531 5.46875-7.585937 5.46875h-4.449219v-34.046875l74.296875-22.289063c3.035157-.910156 5.25-3.527344 5.640625-6.671875l5.601563-44.796875 26.328125 33.839844zm51.40625-21.847656-54.296875-69.832032v-96.222656c3.460938-1.472656 7.050782-2.613281 10.722656-3.417969-1.65625 5.273438-1.519531 10.941407.382813 16.128907l21.398437 57.070312c1.175782 3.121094 4.164063 5.1875 7.496094 5.183594h8v24c0 1.242187.289063 2.46875.84375 3.578125l30.863282 61.71875-10.6875 69.488281c-.609376 3.957031 1.800781 7.753906 5.636718 8.890625l15.609375 4.605469c3.390625 1.019531 5.71875 4.132812 5.734375 7.671875v4.046875h-40v-88c.003906-1.777344-.585937-3.503906-1.679687-4.910156zm113.703125 188.910156h-280c-22.089844 0-40-17.90625-40-40 0-22.089844 17.910156-40 40-40h320c22.09375 0 40 17.910156 40 40 0 22.09375-17.90625 40-40 40zm128 0h-48.886718c16.300781-15.890625 21.34375-40.078125 12.753906-61.160156-8.589844-21.085938-29.097656-34.863282-51.867188-34.839844h-32v-16.878906l120-14.121094zm0 0"/></svg>