<?xml version="1.0" encoding="iso-8859-1"?>
<!-- Generator: Adobe Illustrator 19.0.0, SVG Export Plug-In . SVG Version: 6.00 Build 0)  -->
<svg fill="#33c07f"  version="1.1" id="Layer_1" xmlns="http://www.w3.org/2000/svg" xmlns:xlink="http://www.w3.org/1999/xlink" x="0px" y="0px"
	 viewBox="0 0 512.004 512.004" style="enable-background:new 0 0 512.004 512.004;" xml:space="preserve">
<g>
	<g>
		<path  d="M338.387,135.384v-21.24h-53.099v-10.62h-73.841v10.62h-56.417v50.444h-28.541v125.025
			c0,33.469,22.873,61.688,53.805,69.871v152.519h151.415V355.75c25.403-11.216,43.184-36.633,43.184-66.139v-33.926h10.62V135.384
			H338.387z M285.287,128.913h38.33v6.471v105.534h-38.33V128.913z M226.215,118.293h44.303v122.624h-44.303v-11.78h36.506v-64.549
			h-36.506V118.293z M169.798,128.913h41.648v35.675h-41.648V128.913z M360.123,289.612c0,31.708-25.796,57.503-57.503,57.503
			v14.769c4.901,0,9.689-0.495,14.318-1.43v136.779H195.061V361.79c1.225,0.062,2.458,0.094,3.698,0.094h8.788v-7.385v-0.001v-7.384
			h-0.913h-7.875c-31.707,0-57.503-25.796-57.503-57.503V179.357h13.772h71.187h21.736v35.011h-59.073v41.91
			c-2.505-0.181-4.732-0.292-6.591-0.356l-0.508,14.76c4.003,0.138,9.421,0.475,15.559,1.25c9.974,1.26,21.856,3.682,32.686,8.312
			c20.278,8.667,30.135,21.887,30.135,40.417h14.769c0-11.984-3.13-21.748-8.265-29.717c15.711-5.421,32.435-6.834,42.007-7.163
			l-0.508-14.76c-11.584,0.399-32.761,2.273-51.919,10.068c-14.842-12.749-35.816-18.528-52.596-21.136v-28.816h7.798v26.549h59.072
			h14.769h38.33h14.769h21.736V289.612z M370.743,240.918h-32.356v-90.765h32.356V240.918z"/>
	</g>
</g>
<g>
	<g>
		<rect x="275.141" y="347.118" width="15.051" height="14.769"/>
	</g>
</g>
<g>
	<g>
		<rect x="154.89" y="255.854" width="15.471" height="14.769"/>
	</g>
</g>
<g>
	<g>
		<rect x="247.956" y="398.604" width="14.769" height="66.881"/>
	</g>
</g>
<g>
	<g>
		<rect x="248.615" y="0.002" width="14.769" height="58.964"/>
	</g>
</g>
<g>
	<g>
		<rect x="451.092" y="244.718" width="60.912" height="14.769"/>
	</g>
</g>
<g>
	<g>
		<rect y="244.718" width="58.722" height="14.769"/>
	</g>
</g>
<g>
	<g>
		<rect x="384.36" y="87.12" transform="matrix(0.7071 -0.7071 0.7071 0.7071 54.3169 320.1407)" width="58.486" height="14.768"/>
	</g>
</g>
<g>
	<g>
		
			<rect x="69.188" y="402.39" transform="matrix(0.7071 -0.7071 0.7071 0.7071 -260.9605 189.5341)" width="58.239" height="14.768"/>
	</g>
</g>
<g>
	<g>
		
			<rect x="405.78" y="379.428" transform="matrix(0.7071 -0.7071 0.7071 0.7071 -168.3854 412.0237)" width="14.768" height="59.687"/>
	</g>
</g>
<g>
	<g>
		<rect x="90.509" y="65.489" transform="matrix(0.7071 -0.7071 0.7071 0.7071 -37.802 96.7554)" width="14.768" height="57.04"/>
	</g>
</g>
<g>
	<g>
		<path d="M349.025,17.932c-3.253,8.261-7.07,16.634-10.762,24.732c-4.347,9.537-8.842,19.398-12.644,29.514l13.825,5.196
			c3.626-9.643,8.015-19.272,12.259-28.583c3.77-8.271,7.669-16.824,11.064-25.445L349.025,17.932z"/>
	</g>
</g>
<g>
	<g>
		<path d="M463.638,333.665c-9.815-4.266-19.964-8.678-30.114-12.984l-5.768,13.596c10.088,4.28,20.206,8.679,29.992,12.934
			c8.741,3.801,17.781,7.731,26.823,11.587l5.794-13.586C481.371,341.376,472.355,337.457,463.638,333.665z"/>
	</g>
</g>
<g>
	<g>
		<path d="M53.654,156.711c-8.581-3.61-17.455-7.342-26.088-11.233l-6.069,13.465c8.804,3.968,17.765,7.737,26.432,11.382
			c9.568,4.025,18.603,7.827,27.445,11.871l6.144-13.431C72.468,164.625,62.903,160.602,53.654,156.711z"/>
	</g>
</g>
<g>
	<g>
		<path d="M487.591,152.207c-6.714,2.66-13.254,5.286-19.749,7.895c-12.041,4.834-23.413,9.4-35.659,14.107l5.298,13.786
			c12.348-4.746,24.303-9.545,35.864-14.187c6.475-2.599,12.994-5.217,19.686-7.869L487.591,152.207z"/>
	</g>
</g>
<g>
	<g>
		<path d="M73.082,316.796c-8.718,3.155-17.055,6.67-25.119,10.07c-9.205,3.88-18.722,7.894-28.663,11.291l4.776,13.976
			c10.428-3.564,20.187-7.679,29.625-11.658c7.889-3.326,16.046-6.766,24.405-9.79L73.082,316.796z"/>
	</g>
</g>
<g>
	<g>
		<path d="M169.951,15.408l-13.975,4.777c5.757,16.845,12.485,33.79,21.812,54.944l13.514-5.961
			C182.151,48.418,175.567,31.838,169.951,15.408z"/>
	</g>
</g>
<g>
</g>
<g>
</g>
<g>
</g>
<g>
</g>
<g>
</g>
<g>
</g>
<g>
</g>
<g>
</g>
<g>
</g>
<g>
</g>
<g>
</g>
<g>
</g>
<g>
</g>
<g>
</g>
<g>
</g>
</svg>
